<svg xmlns="http://www.w3.org/2000/svg" xmlns:xlink="http://www.w3.org/1999/xlink" width="1628" height="795.5" viewBox="0 0 1628 795.5">
  <defs>
    <radialGradient id="radial-gradient" cx="0.582" cy="0.692" r="0.5" gradientUnits="objectBoundingBox">
      <stop offset="0" stop-color="#d4d4d4"/>
      <stop offset="1" stop-color="#fff"/>
    </radialGradient>
    <filter id="Ellipse_27" x="887.5" y="0" width="599" height="599" filterUnits="userSpaceOnUse">
      <feOffset input="SourceAlpha"/>
      <feGaussianBlur stdDeviation="49.5" result="blur"/>
      <feFlood flood-color="#fff" flood-opacity="0.141"/>
      <feComposite operator="in" in2="blur"/>
      <feComposite in="SourceGraphic"/>
    </filter>
    <radialGradient id="radial-gradient-2" cx="0.628" cy="0.844" r="0.439" gradientTransform="translate(0 -0.347) scale(1 1.694)" gradientUnits="objectBoundingBox">
      <stop offset="0" stop-color="#c9c9c9"/>
      <stop offset="1" stop-color="#fff"/>
    </radialGradient>
    <radialGradient id="radial-gradient-3" cx="0.584" cy="0.795" r="0.325" gradientTransform="matrix(1, 0, 0, 1.49, 0, -0.389)" gradientUnits="objectBoundingBox">
      <stop offset="0" stop-color="#dadada"/>
      <stop offset="1" stop-color="#fff"/>
    </radialGradient>
  </defs>
  <g id="Group_142" data-name="Group 142" transform="translate(-6723 -4955.5)">
    <rect id="Rectangle_81" data-name="Rectangle 81" width="1387" height="523" rx="35" transform="translate(6723 5228)" fill="#070707"/>
    <g id="Group_137" data-name="Group 137" transform="translate(6785.032 5556.797)">
      <g id="Rectangle_38" data-name="Rectangle 38" transform="translate(-0.032 0.203)" fill="none" stroke="#fff" stroke-width="5">
        <rect width="354" height="89" rx="12" stroke="none"/>
        <rect x="2.5" y="2.5" width="349" height="84" rx="9.5" fill="none"/>
      </g>
      <text id="After_Effects" data-name="After Effects" transform="translate(57.969 57.203)" fill="#fff" font-size="36" font-family="Raleway-Bold, Raleway" font-weight="700" letter-spacing="0.05em"><tspan x="0" y="0">After Effects</tspan></text>
    </g>
    <g id="Group_138" data-name="Group 138" transform="translate(7186.172 5556.797)">
      <g id="Rectangle_38-2" data-name="Rectangle 38" transform="translate(-0.172 0.203)" fill="none" stroke="#fff" stroke-width="5">
        <rect width="354" height="89" rx="12" stroke="none"/>
        <rect x="2.5" y="2.5" width="349" height="84" rx="9.5" fill="none"/>
      </g>
      <text id="Photoshop" transform="translate(74.828 57.203)" fill="#fff" font-size="36" font-family="Raleway-Bold, Raleway" font-weight="700" letter-spacing="0.05em"><tspan x="0" y="0">Photoshop</tspan></text>
    </g>
    <g id="Group_139" data-name="Group 139" transform="translate(6785.032 5422.395)">
      <rect id="Rectangle_40" data-name="Rectangle 40" width="168" height="89" rx="12" transform="translate(-0.032 -0.395)" fill="#fff"/>
      <text id="XD" transform="translate(57.968 56.605)" font-size="36" font-family="Raleway-Bold, Raleway" font-weight="700" letter-spacing="0.05em"><tspan x="0" y="0">XD</tspan></text>
    </g>
    <g id="Group_140" data-name="Group 140" transform="translate(7000.076 5422.395)">
      <rect id="Rectangle_41" data-name="Rectangle 41" width="246" height="89" rx="12" transform="translate(-0.076 -0.395)" fill="#fff"/>
      <text id="Figma" transform="translate(63.924 56.605)" font-size="36" font-family="Raleway-Bold, Raleway" font-weight="700" letter-spacing="0.05em"><tspan x="0" y="0">Figma</tspan></text>
    </g>
    <text id="Properties" transform="translate(6785 5327)" fill="#fff" font-size="54" font-family="Raleway-Bold, Raleway" font-weight="700" letter-spacing="0.05em"><tspan x="0" y="0">Properties</tspan></text>
    <g id="Group_141" data-name="Group 141" transform="translate(7758.934 5103.964)">
      <g transform="matrix(1, 0, 0, 1, -1035.93, -148.46)" filter="url(#Ellipse_27)">
        <circle id="Ellipse_27-2" data-name="Ellipse 27" cx="151" cy="151" r="151" transform="translate(1036 148.5)" fill="url(#radial-gradient)"/>
      </g>
      <ellipse id="Ellipse_36" data-name="Ellipse 36" cx="7" cy="7.5" rx="7" ry="7.5" transform="translate(120.066 159.036)"/>
      <circle id="Ellipse_37" data-name="Ellipse 37" cx="7.5" cy="7.5" r="7.5" transform="translate(169.066 159.036)"/>
      <path id="Path_10" data-name="Path 10" d="M-.034,0S3.75,3.889,7.4,3.889,14.582,0,14.582,0" transform="translate(144.55 201.604)" fill="none" stroke="#000" stroke-linecap="round" stroke-width="1.5"/>
    </g>
    <g id="Polygon_11" data-name="Polygon 11" transform="translate(7668.987 5083.287)" fill="none" stroke-linecap="round" stroke-linejoin="round">
      <path d="M36.5,19.4a5,5,0,0,1,9.7,0L48.9,30.173a5,5,0,0,0,3.638,3.638L63.306,36.5a5,5,0,0,1,0,9.7L52.536,48.9A5,5,0,0,0,48.9,52.536l-2.693,10.77a5,5,0,0,1-9.7,0l-2.693-10.77A5,5,0,0,0,30.173,48.9L19.4,46.205a5,5,0,0,1,0-9.7l10.77-2.693a5,5,0,0,0,3.638-3.638Z" stroke="none"/>
      <path d="M 41.3546257019043 18.61552429199219 C 40.88511657714844 18.61552429199219 39.75617599487305 18.76314163208008 39.41434860229492 20.13046264648438 L 36.72174835205078 30.90088272094727 C 36.00365829467773 33.77323150634766 33.77323532104492 36.00365447998047 30.90088653564453 36.72174453735352 L 20.13046646118164 39.41434478759766 C 18.76314544677734 39.75617218017578 18.61552429199219 40.88511276245117 18.61552429199219 41.35463333129883 C 18.61552429199219 41.82414245605469 18.76314544677734 42.95308303833008 20.13045883178711 43.29491424560547 L 30.90088653564453 45.98752212524414 C 33.77322769165039 46.70561218261719 36.00364685058594 48.93603515625 36.72174835205078 51.80838394165039 L 39.41434860229492 62.57880401611328 C 39.75617599487305 63.94611358642578 40.88511657714844 64.09373474121094 41.3546257019043 64.09373474121094 C 41.82413864135742 64.09373474121094 42.95308685302734 63.94611358642578 43.29491806030273 62.57880401611328 L 45.98752593994141 51.80838394165039 C 46.70560836791992 48.93604278564453 48.93601608276367 46.70562362670898 51.80837631225586 45.98752212524414 L 62.57880783081055 43.29491424560547 C 63.94612884521484 42.95308303833008 64.09375 41.82414245605469 64.09375 41.35463333129883 C 64.09375 40.88512420654297 63.94612884521484 39.75618362426758 62.57880783081055 39.41435241699219 L 51.80837631225586 36.72174453735352 C 48.93601608276367 36.00364303588867 46.70559692382813 33.77321243286133 45.98752593994141 30.90088272094727 L 43.29492568969727 20.13046264648438 C 42.95308685302734 18.76314163208008 41.82413864135742 18.61552429199219 41.3546257019043 18.61552429199219 M 41.35463333129883 15.61552429199219 C 43.46437835693359 15.61552429199219 45.57412338256836 16.87796020507813 46.20534896850586 19.4028434753418 L 48.89795684814453 30.17327499389648 C 49.34580612182617 31.96470260620117 50.74456787109375 33.36345291137695 52.53598785400391 33.81131362915039 L 63.30641937255859 36.50392150878906 C 68.35618591308594 37.76636505126953 68.35618591308594 44.94290161132813 63.30641937255859 46.20534515380859 L 52.53598785400391 48.89795303344727 C 50.74456787109375 49.3458137512207 49.34580612182617 50.74456405639648 48.89795684814453 52.53598403930664 L 46.20534896850586 63.30641174316406 C 45.57412338256836 65.83129119873047 43.46437454223633 67.09373474121094 41.35462951660156 67.09373474121094 C 39.24488067626953 67.09373474121094 37.13513565063477 65.83129119873047 36.5039176940918 63.30641174316406 L 33.81131744384766 52.53598403930664 C 33.36345672607422 50.74456405639648 31.96470642089844 49.3458137512207 30.17327880859375 48.89795303344727 L 19.40284729003906 46.20534515380859 C 14.35308837890625 44.94290161132813 14.35308837890625 37.76635360717773 19.40285873413086 36.50391387939453 L 30.17327880859375 33.81131362915039 C 31.96470642089844 33.36345291137695 33.36345672607422 31.96470260620117 33.81131744384766 30.17327499389648 L 36.5039176940918 19.40285491943359 C 37.13513565063477 16.87796783447266 39.2448844909668 15.61552429199219 41.35463333129883 15.61552429199219 Z" stroke="none" fill="#fff"/>
    </g>
    <g id="Polygon_12" data-name="Polygon 12" transform="translate(8020.501 5044)" fill="none" stroke-linecap="round" stroke-linejoin="round">
      <path d="M23,15.522a4,4,0,0,1,7.761,0l.913,3.654a4,4,0,0,0,2.91,2.91L38.239,23a4,4,0,0,1,0,7.761l-3.654.913a4,4,0,0,0-2.91,2.91l-.913,3.654a4,4,0,0,1-7.761,0l-.913-3.654a4,4,0,0,0-2.91-2.91l-3.654-.913a4,4,0,0,1,0-7.761l3.654-.913a4,4,0,0,0,2.91-2.91Z" stroke="none"/>
      <path d="M 26.88051223754883 15.49242401123047 C 26.52432250976563 15.49242401123047 26.0668830871582 15.62383270263672 25.91037178039551 16.24989318847656 L 24.99692153930664 19.90366363525391 C 24.36860275268555 22.41696357727051 22.4169921875 24.36858367919922 19.90367126464844 24.99692344665527 L 16.24988174438477 25.91037368774414 C 15.62383270263672 26.06688499450684 15.49241256713867 26.52432441711426 15.49241256713867 26.8805046081543 C 15.49241256713867 27.2366943359375 15.62383270263672 27.69414329528809 16.24987411499023 27.85065460205078 L 19.90368270874023 28.76409339904785 C 22.4169921875 29.39243507385254 24.36860275268555 31.34405326843262 24.99692153930664 33.85734558105469 L 25.91037178039551 37.51114654541016 C 26.0668830871582 38.13719177246094 26.52432250976563 38.26860427856445 26.88051223754883 38.26860427856445 C 27.23670196533203 38.26860427856445 27.69414138793945 38.13719177246094 27.85065269470215 37.51113128662109 L 28.76410293579102 33.85735321044922 C 29.39242172241211 31.34405326843262 31.34403228759766 29.39243507385254 33.85735321044922 28.76409339904785 L 37.51113128662109 27.85065460205078 C 38.13718414306641 27.69414329528809 38.26860046386719 27.2366943359375 38.26860046386719 26.8805046081543 C 38.26860046386719 26.52432441711426 38.13718414306641 26.06688499450684 37.51113128662109 25.91037368774414 L 33.85733032226563 24.99692344665527 C 31.34403228759766 24.36858367919922 29.39242172241211 22.41696357727051 28.76410293579102 19.9036750793457 L 27.85065269470215 16.24989318847656 C 27.69414138793945 15.62383270263672 27.23670196533203 15.49242401123047 26.88051223754883 15.49242401123047 M 26.88051223754883 12.49242782592773 C 28.56830978393555 12.49242782592773 30.25610733032227 13.50238037109375 30.76108169555664 15.52228546142578 L 31.67453193664551 19.17606353759766 C 32.03281402587891 20.60920333862305 33.15180969238281 21.72820281982422 34.58495330810547 22.08649444580078 L 38.23874282836914 22.99994468688965 C 42.2785530090332 24.0098934173584 42.2785530090332 29.75112342834473 38.23874282836914 30.76108360290527 L 34.58495330810547 31.67452430725098 C 33.15180969238281 32.03281402587891 32.03281402587891 33.15181350708008 31.67453193664551 34.58495330810547 L 30.76108169555664 38.23874282836914 C 30.25610733032227 40.25864791870117 28.56830978393555 41.26860046386719 26.88051223754883 41.26860046386719 C 25.19271469116211 41.26860046386719 23.50491714477539 40.25864791870117 22.99994277954102 38.23874282836914 L 22.08649253845215 34.58495330810547 C 21.72821044921875 33.15181350708008 20.60920333862305 32.03281402587891 19.17606353759766 31.67452430725098 L 15.52227401733398 30.76108360290527 C 11.48246383666992 29.75112342834473 11.48246383666992 24.0098934173584 15.52227401733398 22.99994468688965 L 19.17606353759766 22.08649444580078 C 20.60920333862305 21.72820281982422 21.72821044921875 20.60920333862305 22.08649253845215 19.17606353759766 L 22.99994277954102 15.52228546142578 C 23.50491714477539 13.50238037109375 25.19271469116211 12.49242782592773 26.88051223754883 12.49242782592773 Z" stroke="none" fill="#fff"/>
    </g>
    <g id="Polygon_13" data-name="Polygon 13" transform="translate(7644.174 5275.586)" fill="none" stroke-linecap="round" stroke-linejoin="round">
      <path d="M23.97,11.642a3,3,0,0,1,5.821,0l2.029,8.116A3,3,0,0,0,34,21.941l8.116,2.029a3,3,0,0,1,0,5.821L34,31.82A3,3,0,0,0,31.82,34l-2.029,8.116a3,3,0,0,1-5.821,0L21.941,34a3,3,0,0,0-2.183-2.183l-8.116-2.029a3,3,0,0,1,0-5.821l8.116-2.029a3,3,0,0,0,2.183-2.183Z" stroke="none"/>
      <path d="M 26.88051223754883 12.36931228637695 C 26.88051223754883 12.36931991577148 26.88051223754883 12.36931991577148 26.8805103302002 12.36932373046875 L 24.85140037536621 20.48575592041016 C 24.31283950805664 22.6400032043457 22.64002990722656 24.31282424926758 20.48575973510742 24.85140419006348 L 12.36936187744141 26.88050079345703 C 12.36936187744141 26.8805046081543 12.36936187744141 26.8805103302002 12.36931991577148 26.8805046081543 L 20.48574066162109 28.90962409973145 C 22.6400203704834 29.44818496704102 24.31283950805664 31.12100410461426 24.85140037536621 33.27526473999023 L 26.88050842285156 41.39170455932617 C 26.88050842285156 41.39170455932617 26.88050842285156 41.39170455932617 26.8805103302002 41.39170455932617 L 28.90962028503418 33.27528381347656 C 29.44818115234375 31.12100410461426 31.12100028991699 29.44818496704102 33.27526092529297 28.90962409973145 L 41.39165878295898 26.88052749633789 C 41.39165878295898 26.88051986694336 41.39165878295898 26.88050842285156 41.39170837402344 26.88051414489746 L 33.27524948120117 24.85139465332031 C 31.12099075317383 24.31282424926758 29.44818115234375 22.6400032043457 28.90962028503418 20.48576354980469 L 26.88051986694336 12.36932373046875 C 26.88051986694336 12.36931991577148 26.88051795959473 12.36931991577148 26.88051795959473 12.36931228637695 C 26.88051605224609 12.36931228637695 26.88051414489746 12.36931228637695 26.88051223754883 12.36931228637695 M 26.88051414489746 9.369316101074219 C 28.14636039733887 9.369316101074219 29.41220474243164 10.12677764892578 29.79094123840332 11.64170455932617 L 31.8200511932373 19.75815582275391 C 32.08876037597656 20.83300399780273 32.92800903320313 21.6722526550293 34.00286865234375 21.94097328186035 L 42.11931991577148 23.97008323669434 C 45.149169921875 24.7275447845459 45.149169921875 29.03347396850586 42.11931991577148 29.79094505310059 L 34.00286865234375 31.82005500793457 C 32.92800903320313 32.08876419067383 32.08876037597656 32.92801666259766 31.8200511932373 34.00287628173828 L 29.79094123840332 42.11931610107422 C 29.41220474243164 43.63424301147461 28.14635848999023 44.39170837402344 26.8805103302002 44.39170837402344 C 25.61466217041016 44.39170837402344 24.34881591796875 43.63424301147461 23.97007942199707 42.11931610107422 L 21.94096946716309 34.00287628173828 C 21.67226028442383 32.92801666259766 20.83301162719727 32.08876419067383 19.75815200805664 31.82005500793457 L 11.6417121887207 29.79093360900879 C 8.611850738525391 29.03347396850586 8.611850738525391 24.7275447845459 11.6417121887207 23.97008323669434 L 19.75815200805664 21.94097328186035 C 20.83301162719727 21.6722526550293 21.67226028442383 20.83300399780273 21.94096946716309 19.75815582275391 L 23.97007942199707 11.64171600341797 C 24.34881591796875 10.12678527832031 25.61466598510742 9.369316101074219 26.88051414489746 9.369316101074219 Z" stroke="none" fill="#fff"/>
    </g>
    <g id="Polygon_14" data-name="Polygon 14" transform="translate(8070.127 5285.925)" fill="none" stroke-linecap="round" stroke-linejoin="round">
      <path d="M61.444,27.164a7,7,0,0,1,13.582,0l5.837,23.35a7,7,0,0,0,5.093,5.093l23.35,5.837a7,7,0,0,1,0,13.582l-23.35,5.837a7,7,0,0,0-5.093,5.093l-5.837,23.35a7,7,0,0,1-13.582,0l-5.837-23.35a7,7,0,0,0-5.093-5.093l-23.35-5.837a7,7,0,0,1,0-13.582l23.35-5.837a7,7,0,0,0,5.093-5.093Z" stroke="none"/>
      <path d="M 68.23514556884766 25.86173248291016 C 67.68566131591797 25.86173248291016 65.85184478759766 26.02559661865234 65.32471466064453 28.13413238525391 L 59.48732757568359 51.48366546630859 C 58.49996185302734 55.43312835693359 55.43312835693359 58.49996185302734 51.48366546630859 59.48732757568359 L 28.13413238525391 65.32471466064453 C 26.02559661865234 65.85184478759766 25.86173248291016 67.68564605712891 25.86173248291016 68.23513031005859 C 25.86173248291016 68.78462982177734 26.02559661865234 70.61844635009766 28.13413238525391 71.14557647705078 L 51.48366546630859 76.98296356201172 C 55.43312835693359 77.97032928466797 58.49996185302734 81.03716278076172 59.48732757568359 84.98663330078125 L 65.32471466064453 108.3361663818359 C 65.85184478759766 110.444694519043 67.68566131591797 110.6085662841797 68.23514556884766 110.6085662841797 C 68.78462982177734 110.6085662841797 70.61843109130859 110.444694519043 71.14557647705078 108.3361434936523 L 76.98296356201172 84.98663330078125 C 77.97032928466797 81.03716278076172 81.03716278076172 77.97032928466797 84.98663330078125 76.98296356201172 L 108.3361663818359 71.14557647705078 C 110.444694519043 70.61844635009766 110.6085662841797 68.78462982177734 110.6085662841797 68.23514556884766 C 110.6085662841797 67.68566131591797 110.444694519043 65.85184478759766 108.3361434936523 65.32471466064453 L 84.98663330078125 59.48732757568359 C 81.03716278076172 58.49996185302734 77.97032928466797 55.43312835693359 76.98296356201172 51.48366546630859 L 71.14557647705078 28.13413238525391 C 70.61844635009766 26.02559661865234 68.78462982177734 25.86173248291016 68.23514556884766 25.86173248291016 M 68.23513793945313 21.86173248291016 C 71.18878173828125 21.86173248291016 74.14242553710938 23.62914276123047 75.02614593505859 27.16397857666016 L 80.863525390625 50.51351165771484 C 81.49052429199219 53.02151489257813 83.44877624511719 54.97975921630859 85.95677947998047 55.60676574707031 L 109.3062973022461 61.44414520263672 C 116.3759765625 63.21156311035156 116.3759765625 73.25872802734375 109.3062973022461 75.02614593505859 L 85.95677947998047 80.863525390625 C 83.44877624511719 81.49052429199219 81.49052429199219 83.44877624511719 80.863525390625 85.95677947998047 L 75.02614593505859 109.3062973022461 C 74.14242553710938 112.8411407470703 71.18878173828125 114.6085586547852 68.23513793945313 114.6085586547852 C 65.281494140625 114.6085586547852 62.32785034179688 112.8411407470703 61.44414520263672 109.3062973022461 L 55.60676574707031 85.95677947998047 C 54.97975921630859 83.44877624511719 53.02151489257813 81.49052429199219 50.51351165771484 80.863525390625 L 27.16397857666016 75.02614593505859 C 20.09431457519531 73.25871276855469 20.09431457519531 63.21156311035156 27.16397857666016 61.44414520263672 L 50.51351165771484 55.60676574707031 C 53.02151489257813 54.97975921630859 54.97975921630859 53.02151489257813 55.60676574707031 50.51351165771484 L 61.44414520263672 27.16397857666016 C 62.32785034179688 23.62914276123047 65.281494140625 21.86173248291016 68.23513793945313 21.86173248291016 Z" stroke="none" fill="#fff"/>
    </g>
    <g id="Union_10" data-name="Union 10" transform="translate(7582.9 5176.942)" fill="none" stroke-linecap="round" stroke-linejoin="round">
      <path d="M72.781,42.511a15.33,15.33,0,0,1-21.354-1.96,23.5,23.5,0,0,1-36.467,1.495A8.528,8.528,0,0,1,8.625,44.87a8.786,8.786,0,0,1,0-17.569l.223,0Q8.8,26.542,8.8,25.769A24.013,24.013,0,0,1,32.582,1.531a23.592,23.592,0,0,1,18.965,9.616,17.2,17.2,0,0,1,33.275,5.141,10.484,10.484,0,0,1,6.959-2.639,10.737,10.737,0,0,1,10.637,10.835,10.849,10.849,0,0,1-6.236,9.865,12.749,12.749,0,0,1,.686,4.145,12.338,12.338,0,0,1-24.086,4.016Z" stroke="none"/>
      <path d="M 84.50390625 47.08613586425781 C 89.11544036865234 47.08613586425781 92.8671875 43.23231887817383 92.8671875 38.49531936645508 C 92.8671875 37.51351928710938 92.70938873291016 36.5557861328125 92.39815521240234 35.64873504638672 C 91.733154296875 33.71063613891602 92.6402587890625 31.58341789245605 94.49920654296875 30.72158432006836 C 96.8797607421875 29.61791801452637 98.41797637939453 27.17008399963379 98.41797637939453 24.48543548583984 C 98.41797637939453 20.71656799316406 95.44075775146484 17.65036773681641 91.78125762939453 17.65036773681641 C 90.19857788085938 17.65036773681641 88.66648864746094 18.23253440856934 87.46723937988281 19.28960037231445 C 86.72328948974609 19.94536018371582 85.77896881103516 20.28898811340332 84.82160186767578 20.28898811340332 C 84.31056213378906 20.28898811340332 83.79570770263672 20.19102096557617 83.30585479736328 19.99033546447754 C 81.89832305908203 19.4136848449707 80.93965911865234 18.0886344909668 80.83226013183594 16.57135200500488 C 80.59007263183594 13.14995098114014 79.09880828857422 9.97371768951416 76.63317108154297 7.627784729003906 C 74.17440795898438 5.288367748260498 70.97037506103516 4.000001430511475 67.611328125 4.000001430511475 C 64.90830993652344 4.000001430511475 62.30887603759766 4.827401161193848 60.09407424926758 6.392767906188965 C 57.91225814819336 7.934817790985107 56.2471923828125 10.07680130004883 55.27885818481445 12.58715152740479 C 54.75427627563477 13.94711780548096 53.53144073486328 14.9140510559082 52.08717346191406 15.11093425750732 C 51.90637588500977 15.13558292388916 51.7257194519043 15.14767456054688 51.54624557495117 15.14767456054688 C 50.29204177856445 15.14767456054688 49.09703063964844 14.55704498291016 48.33640670776367 13.53356838226318 C 46.52480697631836 11.09596824645996 44.16087341308594 9.078834533691406 41.50014114379883 7.700217723846436 C 38.72249221801758 6.261034488677979 35.72199249267578 5.531301498413086 32.58202362060547 5.531301498413086 C 27.31245803833008 5.531301498413086 22.35439109802246 7.626867771148682 18.62112426757813 11.43198490142822 C 14.86782455444336 15.25751781463623 12.80079078674316 20.34931755065918 12.80079078674316 25.76943397521973 C 12.80079078674316 26.20075035095215 12.81400775909424 26.63420104980469 12.84009075164795 27.05771827697754 C 12.90900802612305 28.17680168151855 12.5050745010376 29.27343368530273 11.72672462463379 30.08043479919434 C 10.97187423706055 30.86305236816406 9.932188987731934 31.30357360839844 8.847766876220703 31.30357360839844 C 8.813982963562012 31.30357360839844 8.780054092407227 31.30314445495605 8.746191024780273 31.30228424072266 C 8.705791473388672 31.30125045776367 8.665408134460449 31.30071830749512 8.625007629394531 31.30071830749512 C 6.073691368103027 31.30071830749512 3.998041152954102 33.4470329284668 3.998041152954102 36.08520126342773 C 3.998041152954102 38.72336959838867 6.073691368103027 40.86966705322266 8.625007629394531 40.86966705322266 C 9.916841506958008 40.86966705322266 11.11457443237305 40.33330154418945 11.99759101867676 39.3593864440918 C 12.75599575042725 38.52288436889648 13.83233833312988 38.04612731933594 14.96090221405029 38.04612731933594 C 14.96699619293213 38.04612731933594 14.97316074371338 38.04613876342773 14.97925758361816 38.04616928100586 C 16.11445808410645 38.05134963989258 17.19399070739746 38.53866958618164 17.94877433776855 39.38663482666016 C 19.78937530517578 41.4544677734375 21.9798583984375 43.08308410644531 24.45937538146973 44.22723388671875 C 27.01682472229004 45.40731811523438 29.74967384338379 46.00568389892578 32.58202362060547 46.00568389892578 C 35.69200897216797 46.00568389892578 38.6673583984375 45.28888320922852 41.42545700073242 43.87518310546875 C 44.06730651855469 42.52104949951172 46.42292404174805 40.53725051879883 48.23764038085938 38.13825225830078 C 48.9671745300293 37.1738166809082 50.09385681152344 36.59120178222656 51.30253982543945 36.55335235595703 C 51.34444427490234 36.55204010009766 51.38623428344727 36.55138778686523 51.42800903320313 36.55138778686523 C 52.59121322631836 36.55138778686523 53.6994743347168 37.05825424194336 54.46059036254883 37.94336700439453 C 55.52139282226563 39.17695236206055 56.84792327880859 40.1905517578125 58.29680633544922 40.87456893920898 C 59.80850601196289 41.5882682800293 61.4283561706543 41.95013427734375 63.11132431030273 41.95013427734375 C 65.73687744140625 41.95013427734375 68.20914459228516 41.07013320922852 70.26085662841797 39.40526962280273 C 70.98242950439453 38.81975173950195 71.87478637695313 38.51127624511719 72.78153228759766 38.51127624511719 C 73.1575927734375 38.51127624511719 73.5361328125 38.56433868408203 73.90597534179688 38.67270278930664 C 75.16757202148438 39.04235076904297 76.1669921875 40.00830078125 76.57937622070313 41.25658416748047 C 77.73125457763672 44.7434196472168 80.9158935546875 47.08613586425781 84.50390625 47.08613586425781 M 84.50390625 51.08613586425781 C 79.05274200439453 51.08613586425781 74.42774200439453 47.49530029296875 72.78125762939453 42.51131820678711 C 70.12890625 44.66356658935547 66.765625 45.95013427734375 63.11132431030273 45.95013427734375 C 58.45117568969727 45.95013427734375 54.27344131469727 43.86063385009766 51.42774200439453 40.55138397216797 C 47.078125 46.30146789550781 40.25195693969727 50.00568389892578 32.58202362060547 50.00568389892578 C 25.59570693969727 50.00568389892578 19.31250762939453 46.93493270874023 14.96094131469727 42.04611968994141 C 13.3867244720459 43.78241729736328 11.13085746765137 44.86966705322266 8.625007629394531 44.86966705322266 C 3.861324548721313 44.86966705322266 -0.001958854263648391 40.93586730957031 -0.001958854263648391 36.08520126342773 C -0.001958854263648391 31.23261833190918 3.861324548721313 27.30071830749512 8.625007629394531 27.30071830749512 C 8.699224472045898 27.30071830749512 8.773441314697266 27.30168533325195 8.847658157348633 27.30356788635254 C 8.816408157348633 26.79610061645508 8.800790786743164 26.2849006652832 8.800790786743164 25.76943397521973 C 8.800790786743164 12.38348484039307 19.44727516174316 1.531301259994507 32.58202362060547 1.531301259994507 C 40.32617568969727 1.531301259994507 47.20507431030273 5.305451393127441 51.546875 11.14760112762451 C 54.06445693969727 4.620851039886475 60.31053924560547 1.265462287847186e-06 67.611328125 1.265462287847186e-06 C 76.71875762939453 1.265462287847186e-06 84.17774200439453 7.183401107788086 84.82227325439453 16.28891754150391 C 86.68750762939453 14.64480113983154 89.119140625 13.65036773681641 91.78125762939453 13.65036773681641 C 97.65625762939453 13.65036773681641 102.4179763793945 18.50103378295898 102.4179763793945 24.48543548583984 C 102.4179763793945 28.86933517456055 99.859375 32.64550018310547 96.181640625 34.35055160522461 C 96.62696075439453 35.64840316772461 96.8671875 37.0432014465332 96.8671875 38.49531936645508 C 96.8671875 45.44793319702148 91.33203887939453 51.08613586425781 84.50390625 51.08613586425781 Z" stroke="none" fill="#fff"/>
    </g>
    <path id="Union_11" data-name="Union 11" d="M43.045,60.754a25.772,25.772,0,0,1-17.383,6.689,25.294,25.294,0,1,1,0-50.583,25.784,25.784,0,0,1,15.215,4.926,17.687,17.687,0,0,1,9.969-3.052q.671,0,1.334.049a25.759,25.759,0,0,1,49.789.737,26.041,26.041,0,0,1,6.373-.786,25.294,25.294,0,1,1,0,50.583A25.77,25.77,0,0,1,89.637,61.34a10.112,10.112,0,0,1-9.326,1.949,20.563,20.563,0,0,1-37.266-2.536Z" transform="translate(7699 5387)" fill="url(#radial-gradient-2)"/>
    <g id="Union_12" data-name="Union 12" transform="translate(8021.533 5428.165)" fill="none" stroke-linecap="round" stroke-linejoin="round">
      <path d="M99.648,62.662a31.128,31.128,0,0,1-18.807-1.724,9.8,9.8,0,0,1-10.787,6.583A15.062,15.062,0,0,1,40.3,69c-.336.033-.678.05-1.021.05a10.451,10.451,0,0,1-7.744-3.425,18.78,18.78,0,0,1-12.6,4.84,19.1,19.1,0,0,1,0-38.2A18.732,18.732,0,0,1,29.092,35.24,20.746,20.746,0,0,1,49.447,18.118a20.517,20.517,0,0,1,13.5,5.051A31.269,31.269,0,0,1,92.941.434,30.925,30.925,0,0,1,112.92,7.728a12.961,12.961,0,0,1,24.818,5.356,13.367,13.367,0,0,1-.1,1.616,34.092,34.092,0,0,1,11.506,4.553,18.833,18.833,0,0,1,17.873-2.714A15.062,15.062,0,0,1,195.707,23.1,15.228,15.228,0,0,1,188.615,36a19.132,19.132,0,0,1-9.049,35.881,18.733,18.733,0,0,1-9.5-2.573,10.467,10.467,0,0,1-14.307,3.088,34.319,34.319,0,0,1-56.109-9.732Z" stroke="none"/>
      <path d="M 130.98828125 78.97028350830078 C 135.1917572021484 78.97028350830078 139.2595367431641 78.12586975097656 143.07861328125 76.46044921875 C 146.7710876464844 74.85025787353516 150.0656127929688 72.55055999755859 152.8706512451172 69.62525939941406 C 153.6477508544922 68.81483459472656 154.6981658935547 68.39360046386719 155.7593231201172 68.39360046386719 C 156.4942474365234 68.39360046386719 157.2344207763672 68.59576416015625 157.89208984375 69.01067352294922 C 158.9195709228516 69.65886688232422 160.1083984375 70.00150299072266 161.3300933837891 70.00150299072266 C 163.4983978271484 70.00150299072266 165.5195159912109 68.91192626953125 166.7365417480469 67.08689880371094 C 167.5043334960938 65.93550872802734 168.7714691162109 65.3056640625 170.0675964355469 65.3056640625 C 170.7557373046875 65.3056640625 171.4521179199219 65.48326110839844 172.0861206054688 65.8546142578125 C 174.3475646972656 67.17922973632813 176.9342041015625 67.87936401367188 179.5663909912109 67.87936401367188 C 183.5507049560547 67.87936401367188 187.2978210449219 66.31314849853516 190.1174774169922 63.46920013427734 C 192.9461212158203 60.61625671386719 194.5038909912109 56.82009124755859 194.5038909912109 52.78003311157227 C 194.5038909912109 47.23950576782227 191.5093994140625 42.15231323242188 186.6890106201172 39.50370025634766 C 185.4479827880859 38.82181167602539 184.6599884033203 37.53459167480469 184.6170654296875 36.11922836303711 C 184.5741729736328 34.7038688659668 185.2827606201172 33.37128448486328 186.4802093505859 32.615478515625 C 188.0482940673828 31.62572860717773 189.3590087890625 30.24428367614746 190.2706756591797 28.62047958374023 C 191.2103424072266 26.94681167602539 191.70703125 25.03639602661133 191.70703125 23.09578514099121 C 191.70703125 16.91670036315918 186.7347869873047 11.88964557647705 180.6230621337891 11.88964557647705 C 178.4984588623047 11.88964557647705 176.4357299804688 12.49906253814697 174.6579284667969 13.65200710296631 C 172.9163970947266 14.78145122528076 171.5239868164063 16.37261772155762 170.6311798095703 18.2535343170166 C 169.95166015625 19.68510055541992 168.5217437744141 20.53906631469727 167.0167999267578 20.53906631469727 C 166.5595550537109 20.53906631469727 166.0953216552734 20.46021842956543 165.6431732177734 20.29478454589844 C 164.0153656005859 19.6992015838623 162.3033752441406 19.39720153808594 160.5547027587891 19.39720153808594 C 157.2821502685547 19.39720153808594 154.1751403808594 20.44711685180664 151.5695648193359 22.43342399597168 C 150.8561859130859 22.97725677490234 150.0015258789063 23.25237464904785 149.1441192626953 23.25237464904785 C 148.4104309082031 23.25237464904785 147.6746978759766 23.0509033203125 147.0238647460938 22.64395141601563 C 143.8937377929688 20.6867561340332 140.4764251708984 19.3344783782959 136.8668670654297 18.62467384338379 C 134.8103942871094 18.22028350830078 133.4147644042969 16.29706192016602 133.6679840087891 14.21656227111816 C 133.7146148681641 13.83325672149658 133.73828125 13.4522008895874 133.73828125 13.08400630950928 C 133.73828125 8.075061798095703 129.71142578125 4.000006675720215 124.7617340087891 4.000006675720215 C 121.2372589111328 4.000006675720215 118.0232620239258 6.102395534515381 116.57373046875 9.356118202209473 C 116.0624008178711 10.5039234161377 115.0414276123047 11.34472846984863 113.8168716430664 11.62647914886475 C 113.5196228027344 11.69486999511719 113.218994140625 11.7283763885498 112.9200439453125 11.7283763885498 C 111.9874267578125 11.7283763885498 111.073127746582 11.40185356140137 110.3449554443359 10.7893123626709 C 107.9504776000977 8.77503490447998 105.2620086669922 7.20458984375 102.3541717529297 6.121590137481689 C 99.34700775146484 5.001617908477783 96.18012237548828 4.433728694915771 92.94139862060547 4.433728694915771 C 89.90803527832031 4.433728694915771 86.93087005615234 4.933284282684326 84.0926513671875 5.918506622314453 C 81.34736633300781 6.871479034423828 78.77914428710938 8.260451316833496 76.45931243896484 10.04689598083496 C 74.16053771972656 11.81706237792969 72.16326141357422 13.93228435516357 70.52297973632813 16.3337287902832 C 68.85917663574219 18.76959037780762 67.60486602783203 21.43978500366211 66.79484558105469 24.27017402648926 C 66.41876220703125 25.5843391418457 65.39764404296875 26.61545181274414 64.08720397949219 27.00433921813965 C 63.712890625 27.11541557312012 63.3299560546875 27.16968154907227 62.94955444335938 27.16968154907227 C 61.99822998046875 27.16968154907227 61.0637092590332 26.82999038696289 60.32645416259766 26.18972969055176 C 58.84220123291016 24.90072822570801 57.16700744628906 23.89497947692871 55.3474235534668 23.20039558410645 C 53.46639633178711 22.48236846923828 51.48128509521484 22.11828422546387 49.44725799560547 22.11828422546387 C 47.44578552246094 22.11828422546387 45.49025726318359 22.47172927856445 43.63497924804688 23.16875648498535 C 41.84000778198242 23.84317398071289 40.18273162841797 24.8207836151123 38.70917510986328 26.0744514465332 C 35.73570251464844 28.60422897338867 33.71836853027344 32.11053466796875 33.02873229980469 35.94745254516602 C 32.79239654541016 37.26239395141602 31.91514778137207 38.37253570556641 30.69045257568359 38.9065055847168 C 30.17858123779297 39.12968063354492 29.63443374633789 39.23984909057617 29.09211349487305 39.23984909057617 C 28.3369197845459 39.23984909057617 27.58543395996094 39.02605438232422 26.9310359954834 38.60600662231445 C 24.54617500305176 37.07511901855469 21.7827033996582 36.26594924926758 18.939453125 36.26594924926758 C 14.95425891876221 36.26594924926758 11.20650863647461 37.83220291137695 8.386564254760742 40.67620086669922 C 5.557841777801514 43.52903366088867 4.000008583068848 47.32514572143555 4.000008583068848 51.36525726318359 C 4.000008583068848 55.40536880493164 5.557841777801514 59.20147705078125 8.386564254760742 62.05434036254883 C 11.20650863647461 64.89833831787109 14.95425891876221 66.46459197998047 18.939453125 66.46459197998047 C 22.60431480407715 66.46459197998047 26.12914848327637 65.11003112792969 28.86459159851074 62.65042495727539 C 29.62866020202637 61.9633903503418 30.58467674255371 61.62480926513672 31.53786087036133 61.62480926513672 C 32.62317657470703 61.62480926513672 33.70473098754883 62.06412506103516 34.49345397949219 62.92825698852539 C 35.74220275878906 64.29639434814453 37.44322967529297 65.04984283447266 39.283203125 65.04984283447266 C 39.49334335327148 65.04984283447266 39.70653533935547 65.03945159912109 39.91692352294922 65.01895141601563 C 40.0482177734375 65.00616455078125 40.17863464355469 64.99990081787109 40.30810928344727 64.99990081787109 C 42.18364334106445 64.99990081787109 43.83266067504883 66.31591796875 44.22117614746094 68.18689727783203 C 44.73600769042969 70.66636657714844 46.09584045410156 72.92381286621094 48.05014801025391 74.54339599609375 C 50.04892349243164 76.19981384277344 52.47306442260742 77.07534027099609 55.0605354309082 77.07534027099609 C 57.80603790283203 77.07534027099609 60.43936920166016 76.05367279052734 62.47547912597656 74.19856262207031 C 64.50559234619141 72.34889221191406 65.78481292724609 69.82620239257813 66.07748413085938 67.09519958496094 C 66.19390106201172 66.00875854492188 66.74970245361328 65.01722717285156 67.61573028564453 64.35100555419922 C 68.31945037841797 63.80963897705078 69.17806243896484 63.52138519287109 70.05466461181641 63.52138519287109 C 70.25687408447266 63.52138519287109 70.46019744873047 63.5367431640625 70.66262054443359 63.56786727905273 C 70.95262145996094 63.61244964599609 71.25078582763672 63.63506317138672 71.54884338378906 63.63506317138672 C 74.03303527832031 63.63506317138672 76.24542236328125 62.03461837768555 77.05412292480469 59.65256118774414 C 77.41170501708984 58.59925842285156 78.19175720214844 57.74242401123047 79.20697784423828 57.28778457641602 C 79.72678375244141 57.05500030517578 80.28411102294922 56.93844604492188 80.84180450439453 56.93844604492188 C 81.37330627441406 56.93844604492188 81.90513610839844 57.04435729980469 82.40478515625 57.25645065307617 C 85.74103546142578 58.67270278930664 89.28606414794922 59.39078521728516 92.94139862060547 59.39078521728516 C 94.91175842285156 59.39078521728516 96.87822723388672 59.17722702026367 98.78614807128906 58.75603485107422 C 99.07479858398438 58.69231033325195 99.36392974853516 58.66156768798828 99.64984893798828 58.66156768798828 C 101.1966857910156 58.66156768798828 102.6406097412109 59.56290817260742 103.2965087890625 61.02142333984375 C 105.6694259643555 66.29803466796875 109.4784774780273 70.77528381347656 114.311897277832 73.96916961669922 C 119.2631454467773 77.24092102050781 125.0297622680664 78.97028350830078 130.98828125 78.97028350830078 M 130.98828125 82.97028350830078 C 117.0390625 82.97028350830078 105.033203125 74.63600921630859 99.64842224121094 62.66197967529297 C 97.48634338378906 63.13928604125977 95.24217224121094 63.39078521728516 92.94139862060547 63.39078521728516 C 88.65039825439453 63.39078521728516 84.56250762939453 62.51789474487305 80.84178924560547 60.93844985961914 C 79.51953887939453 64.83325958251953 75.85548400878906 67.63506317138672 71.54884338378906 67.63506317138672 C 71.0390625 67.63506317138672 70.54100799560547 67.59617614746094 70.05470275878906 67.52139282226563 C 69.23828887939453 75.14003753662109 62.8417854309082 81.07534027099609 55.0605354309082 81.07534027099609 C 47.80273056030273 81.07534027099609 41.73634338378906 75.89486694335938 40.30470275878906 69.00011444091797 C 39.96875762939453 69.0328369140625 39.626953125 69.04984283447266 39.283203125 69.04984283447266 C 36.21681594848633 69.04984283447266 33.46095275878906 67.73047637939453 31.53906440734863 65.62483978271484 C 28.19139671325684 68.63492584228516 23.77734184265137 70.46459197998047 18.939453125 70.46459197998047 C 8.476564407348633 70.46459197998047 8.680555765749887e-06 61.91403579711914 8.680555765749887e-06 51.36525726318359 C 8.680555765749887e-06 40.81647872924805 8.476564407348633 32.26594924926758 18.939453125 32.26594924926758 C 22.67384147644043 32.26594924926758 26.158203125 33.35672760009766 29.0918140411377 35.23984146118164 C 30.8418140411377 25.50333976745605 39.29100799560547 18.11828422546387 49.44725799560547 18.11828422546387 C 54.60742568969727 18.11828422546387 59.3242301940918 20.02150726318359 62.9492301940918 23.16961860656738 C 66.70703887939453 10.0389232635498 78.71289825439453 0.4337289035320282 92.94139862060547 0.4337289035320282 C 100.5410079956055 0.4337289035320282 107.5058670043945 3.173923254013062 112.919921875 7.728340148925781 C 114.9492340087891 3.173228979110718 119.4882888793945 6.679958914901363e-06 124.7617340087891 6.679958914901363e-06 C 131.9297027587891 6.679958914901363e-06 137.73828125 5.860423564910889 137.73828125 13.08400630950928 C 137.73828125 13.63109016418457 137.703125 14.17036819458008 137.638671875 14.69983959197998 C 141.791015625 15.51636791229248 145.6738433837891 17.08222961425781 149.14453125 19.25236701965332 C 152.3183746337891 16.83283996582031 156.271484375 15.39720153808594 160.5547027587891 15.39720153808594 C 162.8242340087891 15.39720153808594 165.0000152587891 15.80011749267578 167.0175933837891 16.5383129119873 C 169.4453125 11.42367362976074 174.6250152587891 7.889645576477051 180.6230621337891 7.889645576477051 C 188.953125 7.889645576477051 195.70703125 14.70014572143555 195.70703125 23.09578514099121 C 195.70703125 28.53600692749023 192.8750152587891 33.30931091308594 188.615234375 35.9980354309082 C 194.5078125 39.23578262329102 198.5038909912109 45.53675842285156 198.5038909912109 52.78003311157227 C 198.5038909912109 63.32881164550781 190.02734375 71.87936401367188 179.5663909912109 71.87936401367188 C 176.1015625 71.87936401367188 172.857421875 70.94206237792969 170.064453125 69.30611419677734 C 168.17578125 72.13834381103516 164.9668121337891 74.00150299072266 161.3300933837891 74.00150299072266 C 159.283203125 74.00150299072266 157.3730316162109 73.41270446777344 155.7578125 72.39369964599609 C 149.5058746337891 78.91372680664063 140.7187652587891 82.97028350830078 130.98828125 82.97028350830078 Z" stroke="none" fill="#fff"/>
    </g>
    <path id="Union_13" data-name="Union 13" d="M78.133,115.135a47.281,47.281,0,1,1,5.332-67.441,29.36,29.36,0,0,1,16.627-8.03,42.877,42.877,0,0,1,85.586,1.207,49.754,49.754,0,1,1-11.525,69.408,23.915,23.915,0,0,1-35.289,5.745,34.245,34.245,0,0,1-60.73-.889Z" transform="translate(8086 5125)" fill="url(#radial-gradient-3)"/>
    <text id="Late_Nights" data-name="Late Nights" transform="translate(7822 5650)" fill="rgba(255,255,255,0.12)" font-size="94" font-family="ChreiRegular, Chrei" letter-spacing="0.05em"><tspan x="-179.164" y="0">Late Nights</tspan></text>
  </g>
</svg>
