<svg xmlns="http://www.w3.org/2000/svg" xmlns:xlink="http://www.w3.org/1999/xlink" width="1688.383" height="1198.628" viewBox="0 0 1688.383 1198.628">
  <defs>
    <filter id="Ellipse_21" x="1267.383" y="621.479" width="421" height="421" filterUnits="userSpaceOnUse">
      <feOffset input="SourceAlpha"/>
      <feGaussianBlur stdDeviation="49.5" result="blur"/>
      <feFlood flood-color="#00ff6d" flood-opacity="0.91"/>
      <feComposite operator="in" in2="blur"/>
      <feComposite in="SourceGraphic"/>
    </filter>
    <filter id="Polygon_1" x="0" y="0" width="588.397" height="596.018" filterUnits="userSpaceOnUse">
      <feOffset input="SourceAlpha"/>
      <feGaussianBlur stdDeviation="49.5" result="blur-2"/>
      <feFlood flood-color="#ff568d"/>
      <feComposite operator="in" in2="blur-2"/>
      <feComposite in="SourceGraphic"/>
    </filter>
    <filter id="Rectangle_48" x="90.231" y="798.566" width="402.127" height="400.062" filterUnits="userSpaceOnUse">
      <feOffset input="SourceAlpha"/>
      <feGaussianBlur stdDeviation="49.5" result="blur-3"/>
      <feFlood flood-color="#0076d1"/>
      <feComposite operator="in" in2="blur-3"/>
      <feComposite in="SourceGraphic"/>
    </filter>
  </defs>
  <g id="Group_176" data-name="Group 176" transform="translate(-6456.117 -5596.021)">
    <text id="class_Jay_constructor_this.name_Jay_Rank_this.attribute_Programming_Skills_ProgrammingSkills_dict_Skills_:_Advanced_Level_:_C_C_Python_Java_Intermediate_Level_:_C_N" data-name="class Jay {
    constructor() {
        this.name = &quot;Jay Rank&quot;
        this.attribute = &quot;Programming Skills&quot;
    }

    ProgrammingSkills() {
        dict Skills : {
            Advanced Level : C, C++, Python, Java ;
            Intermediate Level : C#, N" transform="translate(6809 6033)" fill="#ff0939" font-size="29" font-family="Consolas" letter-spacing="0.05em"><tspan x="0" y="0">class</tspan><tspan y="0" fill="#fff"> </tspan><tspan y="0" fill="#14dfff">Jay</tspan><tspan y="0" xml:space="preserve" fill="#fff"> {</tspan><tspan fill="#fff"><tspan x="0" y="34" xml:space="preserve">    </tspan><tspan y="34" fill="#40f">constructor</tspan><tspan y="34" fill="#fd0">()</tspan><tspan y="34" xml:space="preserve"> {</tspan><tspan x="0" y="68" xml:space="preserve">        </tspan><tspan y="68" fill="#00ff90">this</tspan><tspan y="68">.</tspan><tspan y="68" fill="#ff8000">name</tspan><tspan y="68" xml:space="preserve"> = </tspan><tspan y="68" fill="#10ff00">&quot;Jay Rank&quot;</tspan><tspan x="0" y="102" xml:space="preserve">        </tspan><tspan y="102" fill="#00ff90">this</tspan><tspan y="102">.</tspan><tspan y="102" fill="#ff8000">attribute</tspan><tspan y="102" xml:space="preserve"> = </tspan><tspan y="102" fill="#10ff00">&quot;Programming Skills&quot;</tspan><tspan x="0" y="136" xml:space="preserve">    }</tspan><tspan x="0" y="170"></tspan><tspan x="0" y="204" xml:space="preserve">    </tspan><tspan y="204" fill="#40f">ProgrammingSkills</tspan><tspan y="204" fill="#fd0">()</tspan><tspan y="204" xml:space="preserve"> {</tspan><tspan x="0" y="238" xml:space="preserve">        </tspan><tspan y="238" fill="#00ff90">dict</tspan><tspan y="238"> </tspan><tspan y="238" fill="#ff8000">Skills</tspan><tspan y="238" xml:space="preserve"> : {</tspan><tspan x="0" y="272" xml:space="preserve">            </tspan><tspan y="272" fill="#ff8000">Advanced Level</tspan><tspan y="272" xml:space="preserve"> : </tspan><tspan y="272" fill="#10ff00">C, C++, Python, Java</tspan><tspan y="272" xml:space="preserve"> ;</tspan><tspan x="0" y="306" xml:space="preserve">            </tspan><tspan y="306" fill="#ff8000">Intermediate Level</tspan><tspan y="306" xml:space="preserve"> : </tspan><tspan y="306" fill="#10ff00">C#, Node.JS, HTML/CSS</tspan><tspan y="306" xml:space="preserve"> ;</tspan><tspan x="0" y="340" xml:space="preserve">            </tspan><tspan y="340" fill="#ff8000">Beginner Level</tspan><tspan y="340" xml:space="preserve"> :  </tspan><tspan y="340" fill="#10ff00">Q#, Dart, ReactNative</tspan><tspan x="0" y="374" xml:space="preserve">        }</tspan><tspan x="0" y="408" xml:space="preserve">    }</tspan><tspan x="0" y="442">}</tspan></tspan></text>
    <g id="Group_61" data-name="Group 61" transform="translate(7754.391 5961.347)">
      <g id="Rectangle_48-2" data-name="Rectangle 48" transform="translate(75.61 -0.347)" fill="none" stroke="#fff" stroke-linejoin="round" stroke-width="1.5">
        <rect width="23" height="23" stroke="none"/>
        <rect x="0.75" y="0.75" width="21.5" height="21.5" fill="none"/>
      </g>
      <g id="Ellipse_21-2" data-name="Ellipse 21" transform="translate(39.61 -0.347)" fill="none" stroke="#fff" stroke-width="1.5">
        <ellipse cx="10.5" cy="11.5" rx="10.5" ry="11.5" stroke="none"/>
        <ellipse cx="10.5" cy="11.5" rx="9.75" ry="10.75" fill="none"/>
      </g>
      <g id="Polygon_1-2" data-name="Polygon 1" transform="translate(-0.391 -0.347)" fill="none" stroke-linecap="round" stroke-linejoin="round">
        <path d="M12.5,0,25,23H0Z" stroke="none"/>
        <path d="M 12.5 3.141279220581055 L 2.522434234619141 21.5 L 22.47756576538086 21.5 L 12.5 3.141279220581055 M 12.5 0 L 25 23 L 0 23 L 12.5 0 Z" stroke="none" fill="#fff"/>
      </g>
    </g>
    <g id="Group_65" data-name="Group 65" transform="translate(6750.974 5893.955)">
      <rect id="Rectangle_54" data-name="Rectangle 54" width="1159" height="708" rx="26" transform="translate(0.026 0.045)" fill="#070707"/>
      <text id="class_Jay_constructor_this.name_Jay_Rank_this.attribute_Programming_Skills_ProgrammingSkills_dict_Skills_:_Advanced_Level_:_C_C_Python_Java_Intermediate_Level_:_C_N-2" data-name="class Jay {
    constructor() {
        this.name = &quot;Jay Rank&quot;
        this.attribute = &quot;Programming Skills&quot;
    }

    ProgrammingSkills() {
        dict Skills : {
            Advanced Level : C, C++, Python, Java ;
            Intermediate Level : C#, N" transform="translate(62.026 139.045)" fill="#f90064" font-size="29" font-family="Consolas" letter-spacing="0.05em"><tspan x="0" y="0">class </tspan><tspan y="0" fill="#fff">Jay {</tspan><tspan fill="#fff"><tspan x="0" y="34" xml:space="preserve">    </tspan><tspan y="34" fill="#13c0e5">constructor</tspan><tspan y="34" fill="#f90064">()</tspan><tspan y="34" xml:space="preserve"> {</tspan><tspan x="0" y="68" xml:space="preserve">        </tspan><tspan y="68" fill="#73ff00">this</tspan><tspan y="68">.</tspan><tspan y="68" fill="#f90064">name</tspan><tspan y="68" xml:space="preserve"> = &quot;Jay Rank&quot;</tspan><tspan x="0" y="102" xml:space="preserve">        </tspan><tspan y="102" fill="#73ff00">this</tspan><tspan y="102">.</tspan><tspan y="102" fill="#f90064">attribute </tspan><tspan y="102">= &quot;Programming Skills&quot;</tspan><tspan x="0" y="136" xml:space="preserve">    }</tspan><tspan x="0" y="170"></tspan><tspan x="0" y="204" xml:space="preserve">    </tspan><tspan y="204" fill="#13c0e5">ProgrammingSkills</tspan><tspan y="204" fill="#f90064">()</tspan><tspan y="204" xml:space="preserve"> {</tspan><tspan x="0" y="238" xml:space="preserve">        </tspan><tspan y="238" fill="#73ff00">dict </tspan><tspan y="238" fill="#f90064">Skills</tspan><tspan y="238" xml:space="preserve"> : {</tspan><tspan x="0" y="272" xml:space="preserve">            </tspan><tspan y="272" fill="#73ff00">Advanced Level</tspan><tspan y="272" xml:space="preserve"> : C, C++, Python, Java </tspan><tspan y="272" fill="#73ff00">;</tspan><tspan x="0" y="306" xml:space="preserve">            </tspan><tspan y="306" fill="#73ff00">Intermediate Level</tspan><tspan y="306" xml:space="preserve"> : C#, Node.JS, HTML/CSS </tspan><tspan y="306" fill="#73ff00">;</tspan><tspan x="0" y="340" xml:space="preserve">            </tspan><tspan y="340" fill="#73ff00">Beginner Level</tspan><tspan y="340" xml:space="preserve"> :  Q#, Dart, ReactNative</tspan><tspan x="0" y="374" xml:space="preserve">        }</tspan><tspan x="0" y="408" xml:space="preserve">    }</tspan><tspan x="0" y="442">}</tspan></tspan></text>
      <g id="Group_64" data-name="Group 64" transform="translate(1007.417 44.928)">
        <g id="Rectangle_48-3" data-name="Rectangle 48" transform="translate(75.61 0.117)" fill="none" stroke="#0076d1" stroke-linejoin="round" stroke-width="2.5">
          <rect width="23" height="22" stroke="none"/>
          <rect x="1.25" y="1.25" width="20.5" height="19.5" fill="none"/>
        </g>
        <g id="Ellipse_21-3" data-name="Ellipse 21" transform="translate(37.61 0.117)" fill="none" stroke="#00da5d" stroke-width="2.5">
          <ellipse cx="11.5" cy="11" rx="11.5" ry="11" stroke="none"/>
          <ellipse cx="11.5" cy="11" rx="10.25" ry="9.75" fill="none"/>
        </g>
        <g id="Polygon_1-3" data-name="Polygon 1" transform="translate(-0.391 0.117)" fill="none" stroke-linecap="round" stroke-linejoin="round">
          <path d="M12.5,0,25,22H0Z" stroke="none"/>
          <path d="M 12.5 5.060626983642578 L 4.295810699462891 19.5 L 20.70418930053711 19.5 L 12.5 5.060626983642578 M 12.5 0 L 25 22 L 0 22 L 12.5 0 Z" stroke="none" fill="#ff0053"/>
        </g>
      </g>
    </g>
    <g transform="matrix(1, 0, 0, 1, 6456.12, 5596.02)" filter="url(#Ellipse_21)">
      <g id="Ellipse_21-4" data-name="Ellipse 21" transform="translate(1415.88 769.98)" fill="none" stroke="#00da5d" stroke-width="6">
        <circle cx="62" cy="62" r="62" stroke="none"/>
        <circle cx="62" cy="62" r="59" fill="none"/>
      </g>
    </g>
    <g transform="matrix(1, 0, 0, 1, 6456.12, 5596.02)" filter="url(#Polygon_1)">
      <g id="Polygon_1-4" data-name="Polygon 1" transform="matrix(0.54, 0.84, -0.84, 0.54, 316.61, 148.5)" fill="none" stroke-linecap="round" stroke-linejoin="round">
        <path d="M109.7,6.169a4,4,0,0,1,6.966,0L223,194.48a4,4,0,0,1-3.483,5.967H6.852a4,4,0,0,1-3.483-5.967Z" stroke="none"/>
        <path d="M 113.1832427978516 10.1690673828125 L 8.565261840820313 195.4466552734375 L 217.8011627197266 195.4466552734375 L 113.1832427978516 10.1690673828125 M 113.183235168457 4.135269165039063 C 114.5420837402344 4.135269165039063 115.9009323120117 4.813018798828125 116.6663360595703 6.16851806640625 L 222.9972991943359 194.4798889160156 C 224.5029754638672 197.1463928222656 222.5764312744141 200.4466552734375 219.5142059326172 200.4466552734375 L 6.85223388671875 200.4466552734375 C 3.7900390625 200.4466552734375 1.863494873046875 197.1463928222656 3.369140625 194.4798889160156 L 109.7001342773438 6.16851806640625 C 110.4655380249023 4.813018798828125 111.8243865966797 4.135269165039063 113.183235168457 4.135269165039063 Z" stroke="none" fill="#ff0053"/>
      </g>
    </g>
    <g transform="matrix(1, 0, 0, 1, 6456.12, 5596.02)" filter="url(#Rectangle_48)">
      <g id="Rectangle_48-4" data-name="Rectangle 48" transform="translate(238.73 975.43) rotate(-20)" fill="none" stroke="#0076d1" stroke-linejoin="round" stroke-width="5">
        <rect width="82.943" height="79.487" rx="4" stroke="none"/>
        <rect x="2.5" y="2.5" width="77.943" height="74.487" rx="1.5" fill="none"/>
      </g>
    </g>
  </g>
</svg>
